<?xml version="1.0" encoding="UTF-8" standalone="no"?>
<!-- Created with Inkscape (http://www.inkscape.org/) -->

<svg
   xmlns:dc="http://purl.org/dc/elements/1.1/"
   xmlns:cc="http://creativecommons.org/ns#"
   xmlns:rdf="http://www.w3.org/1999/02/22-rdf-syntax-ns#"
   xmlns:svg="http://www.w3.org/2000/svg"
   xmlns="http://www.w3.org/2000/svg"
   xmlns:sodipodi="http://sodipodi.sourceforge.net/DTD/sodipodi-0.dtd"
   xmlns:inkscape="http://www.inkscape.org/namespaces/inkscape"
   width="500"
   height="500"
   viewBox="0 0 500.00001 500.00001"
   id="svg4916"
   version="1.1"
   inkscape:version="0.91 r13725"
   sodipodi:docname="sloth.svg"
   inkscape:export-filename="/home/ian/sloth.5096x5096.png"
   inkscape:export-xdpi="917.28003"
   inkscape:export-ydpi="917.28003">
  <defs
     id="defs4918">
    <filter
       inkscape:collect="always"
       style="color-interpolation-filters:sRGB"
       id="filter4628"
       x="-0.14889552"
       width="1.297791"
       y="-0.72753942"
       height="2.4550788">
      <feGaussianBlur
         inkscape:collect="always"
         stdDeviation="4.0343594"
         id="feGaussianBlur4630" />
    </filter>
    <filter
       inkscape:collect="always"
       style="color-interpolation-filters:sRGB"
       id="filter4848"
       x="-0.41728187"
       width="1.8345637"
       y="-1.067382"
       height="3.134764">
      <feGaussianBlur
         inkscape:collect="always"
         stdDeviation="13.084631"
         id="feGaussianBlur4850" />
    </filter>
  </defs>
  <sodipodi:namedview
     id="base"
     pagecolor="#ffffff"
     bordercolor="#666666"
     borderopacity="1.0"
     inkscape:pageopacity="0.0"
     inkscape:pageshadow="2"
     inkscape:zoom="0.98994949"
     inkscape:cx="137.96642"
     inkscape:cy="240.25866"
     inkscape:document-units="px"
     inkscape:current-layer="layer1"
     showgrid="false"
     units="px"
     inkscape:window-width="1323"
     inkscape:window-height="747"
     inkscape:window-x="43"
     inkscape:window-y="21"
     inkscape:window-maximized="1" />
  <metadata
     id="metadata4921">
    <rdf:RDF>
      <cc:Work
         rdf:about="">
        <dc:format>image/svg+xml</dc:format>
        <dc:type
           rdf:resource="http://purl.org/dc/dcmitype/StillImage" />
        <dc:title></dc:title>
      </cc:Work>
    </rdf:RDF>
  </metadata>
  <g
     inkscape:label="Layer 1"
     inkscape:groupmode="layer"
     id="layer1"
     transform="translate(0,-552.36214)">
    <path
       inkscape:connector-curvature="0"
       id="path4280"
       d="m 346.14751,896.9574 4.50563,-35.8591 4.42533,-7.1373 7.93524,-6.7048 7.9541,-5.0947 12.29104,-0.3713 11.40931,1.9882 8.20579,6.6862 5.30246,11.1344 4.12054,13.7438 -1.15283,18.0303 -12.57453,5.2815 -16.33424,4.5487 -13.40153,0.9906 -14.90873,-3.1408 -7.50892,-2.1854 -0.21827,-2.4603 z"
       style="fill:#f597a4;fill-opacity:1;fill-rule:evenodd;stroke:#000000;stroke-width:0.97805917px;stroke-linecap:butt;stroke-linejoin:miter;stroke-opacity:1" />
    <path
       inkscape:connector-curvature="0"
       id="path4297"
       d="m 333.02515,792.45062 4.53086,-27.19383 0.26449,-14.01555 -5.09105,-20.62413 -6.0678,-19.38023 -14.73657,-20.6451 -17.11461,-17.80403 -18.71788,-10.57808 -18.98809,-8.48509 -24.91678,-4.55753 -23.63441,1.99159 -18.2194,4.52703 -19.00029,8.76938 -17.48924,11.96677 -13.07768,13.46905 -9.75567,15.73429 -9.31932,18.67634 -5.09183,20.4755 -0.90281,16.70227 0.86659,14.51136 4.73778,20.1996 6.14211,14.28879 9.59179,16.01668 14.25867,16.4443 16.05784,12.2168 19.28495,8.6691 26.6119,7.4581 19.53153,-0.014 21.92443,-3.8738 22.05514,-8.7248 7.59714,-3.3041 0.11203,41.5806 -24.02046,7.9172 -23.46519,2.713 -24.79217,-0.7812 -25.35619,-3.186 -21.80247,-8.5861 -20.27352,-10.7206 -22.50292,-18.0624 -20.43356,-24.3829 -10.494223,-19.8642 -5.70272,-15.66038 -6.79796,-26.81998 -1.19015,-16.97247 2.06974,-26.87028 7.06324,-28.29519 10.48013,-20.21711 12.403913,-20.66834 16.9698,-17.42634 21.43778,-15.6836 27.09323,-13.20457 26.09856,-6.62876 15.43171,-2.35097 27.97469,0.2885 24.59019,6.41004 24.13592,8.79988 28.1881,18.50487 22.07533,22.72931 13.46295,21.70491 10.15275,22.73503 5.59867,22.78837 1.86393,24.17174 -2.23895,26.14887 -6.35364,24.83066 -7.25301,16.66951 -12.20497,19.3532 -12.27319,15.8173 -17.42103,15.5026 -10.66076,-4.3494 -9.30939,-35.3642 20.88862,-19.10659 5.83076,-5.4268 z"
       style="fill:#007ae7;fill-opacity:1;fill-rule:evenodd;stroke:#000000;stroke-width:0.97805917px;stroke-linecap:butt;stroke-linejoin:miter;stroke-opacity:1" />
    <path
       transform="matrix(0.8961076,-0.21018014,0.20230874,0.86254771,-107.23648,678.36443)"
       inkscape:connector-curvature="0"
       id="path4333"
       d="m 426.53691,359.20815 c 0,0 12.94258,9.53332 27.7792,12.37437 14.83661,2.84106 37.24937,-1.70463 37.24937,-1.70463 l -0.12627,0.25254"
       style="fill:none;fill-rule:evenodd;stroke:#000000;stroke-width:4.89989996;stroke-linecap:butt;stroke-linejoin:miter;stroke-miterlimit:4;stroke-dasharray:none;stroke-opacity:0.3466667;filter:url(#filter4628)" />
    <path
       inkscape:connector-curvature="0"
       id="path4634"
       d="m 313.0574,939.333 c 8.57369,5.7269 17.46655,10.1105 17.46655,10.1105 0,0 8.30655,3.5063 12.2164,4.492 3.90985,0.9857 16.65178,2.31 19.26133,2.0785 2.60955,-0.2315 18.31736,-3.0278 22.1649,-3.9302 3.84754,-0.9025 6.55656,-1.7916 6.55656,-1.7916"
       style="fill:none;fill-rule:evenodd;stroke:#000000;stroke-width:0.97805917px;stroke-linecap:butt;stroke-linejoin:miter;stroke-opacity:1" />
    <path
       inkscape:connector-curvature="0"
       id="path4293"
       d="m 312.37162,939.1133 -11.04682,1.5762 -11.05863,-1.7191 -9.03386,-4.9847 -6.40355,-4.5869 -2.27399,-4.2869 -3.68406,-10.2988 -3.34257,-13.1695 -2.8647,-8.9687 -6.1364,-2.3662 -6.60553,1.0419 -4.20386,4.7915 -0.34756,11.498 0.54305,12.0503 3.7938,15.0933 5.16536,15.5327 6.04417,12.7895 10.83873,12.6798 6.75683,5.0115 9.92448,5.5369 10.9725,3.5152 13.36236,3.9695 14.07195,0.505 14.1314,-3.5682 11.57234,-4.7439 12.8193,-8.0807 13.5853,-11.3048 8.88867,-9.6959 5.02628,-7.7751 -6.80446,2.3571 -11.30216,2.6509 -13.19619,1.0655 -12.81319,-0.5465 -8.65392,-2.2831 -10.37875,-3.1471 -9.81169,-5.056 z"
       style="fill:#f597a4;fill-opacity:1;fill-rule:evenodd;stroke:#000000;stroke-width:0.97805917px;stroke-linecap:butt;stroke-linejoin:miter;stroke-opacity:1" />
    <path
       transform="matrix(0.95221776,-0.22334066,0.22334066,0.95221776,-302.57048,692.61231)"
       inkscape:connector-curvature="0"
       id="path4722"
       d="m 554.44748,389.32333 6.9448,6.56599 9.97525,8.83883 15.78364,8.5863 14.01586,3.78807 16.54125,1.6415 11.99556,-0.88389"
       style="fill:none;fill-rule:evenodd;stroke:#000000;stroke-width:7;stroke-linecap:butt;stroke-linejoin:miter;stroke-miterlimit:4;stroke-dasharray:none;stroke-opacity:0.32666668;filter:url(#filter4848)" />
    <path
       inkscape:connector-curvature="0"
       id="path4291"
       d="m 389.43224,865.816 -8.31923,-1.816 -8.43054,0 -8.5817,1.6541 -6.75332,4.0954 -1.87475,6.5391 1.45678,4.6814 6.0163,5.7646 9.46748,4.4169 10.52974,1.2976 9.1716,-1.4336 6.91284,-3.4154 3.76404,-5.3676 -0.63597,-5.7708 -4.23614,-5.8234 z"
       style="fill:#fccec8;fill-opacity:1;fill-rule:evenodd;stroke:#000000;stroke-width:0.97805917px;stroke-linecap:butt;stroke-linejoin:miter;stroke-opacity:1" />
    <path
       inkscape:connector-curvature="0"
       id="path4230"
       d="m 317.03694,810.32135 c -7.50273,3.1949 -7.95194,2.04451 -14.9866,7.99991 -7.03465,5.95544 -14.28973,12.50064 -18.43185,29.25884 -4.14211,16.7581 -4.37117,29.5487 -4.37117,29.5487 l 0.43439,7.9708 3.90846,16.6638 3.64411,8.6532 7.26316,10.3158 19.62749,19.4351 14.99469,8.8611 19.77677,6.3044 19.15134,-0.1865 24.22529,-5.3232 3.77454,-6.0877 6.14053,-14.3565 5.83416,-19.4871 3.51235,-17.1486 -10.20449,5.4431 -18.54475,5.0672 -16.02139,0.5287 -19.62776,-4.9042 -10.59684,-5.4078 -10.73535,-7.5281 -9.94175,-12.5578 -5.74332,-9.9547 -4.14776,-17.684 -1.39588,-5.9514 13.08277,-16.8818 6.96971,-13.11592 z"
       style="opacity:1;fill:#ff9dab;fill-opacity:1;fill-rule:evenodd;stroke:#000000;stroke-width:0.97805917px;stroke-linecap:butt;stroke-linejoin:miter;stroke-opacity:1" />
    <path
       inkscape:connector-curvature="0"
       id="path4224"
       d="m 322.56469,995.7497 c -7.95171,0.033 -14.96676,-1.4712 -27.72697,-5.944 -19.00969,-6.6634 -30.13343,-15.9929 -38.06564,-31.9257 -5.14513,-10.3346 -10.50248,-27.6249 -11.86552,-38.2947 -0.61475,-4.8123 -1.42869,-9.0615 -1.80875,-9.4427 -0.38005,-0.3811 -1.68853,-0.459 -2.90772,-0.1731 -7.55497,1.772 -33.92246,0.136 -46.69491,-2.8973 -40.79209,-9.6877 -73.88478,-33.2362 -95.404643,-67.8895 -18.01655,-29.01185 -25.20261,-59.65318 -21.96362,-93.65521 2.36885,-24.87152 10.01801,-46.80221 23.63707,-67.76912 12.638913,-19.45795 27.509543,-34.06399 47.011023,-46.17457 29.01542,-18.01883 59.56018,-25.1845 93.69666,-21.98088 23.23189,2.18028 44.25877,9.37781 65.04206,22.26399 20.78329,12.88619 36.57949,28.51994 48.86211,48.35959 18.04783,29.15199 25.21073,59.6974 21.97182,93.69878 -1.58603,16.65238 -4.90714,29.67072 -11.63827,45.62055 -4.19502,9.94037 -16.10487,29.21517 -23.29973,37.70797 -4.76575,5.6255 -17.60531,18.2682 -20.13602,19.8272 -1.60743,0.9903 6.69062,8.9523 15.08815,14.4771 l 8.46073,5.5665 1.38207,-15.3551 c 1.52937,-16.9917 2.28634,-20.9295 4.87559,-25.3636 2.11852,-3.628 7.6675,-8.3471 13.36462,-11.366 2.30366,-1.2208 4.54138,-2.6491 4.9727,-3.174 1.05136,-1.2797 11.08444,-1.9266 17.36997,-1.1199 2.78741,0.3577 6.59503,1.5041 8.46139,2.5475 4.02626,2.2508 9.7554,7.7085 10.76912,10.2588 0.39649,0.9975 2.01478,5.0066 3.59621,8.9092 5.11975,12.6342 5.11937,25.0069 -0.001,46.3847 -5.20471,21.7279 -14.72949,42.683 -23.95355,52.699 -5.72976,6.2217 -13.98011,12.984 -25.82145,21.1642 -9.61335,6.6411 -10.55729,7.0932 -20.84843,9.9865 -7.54595,2.1216 -12.47255,3.0375 -16.42463,3.0538 z m 38.05879,-16.9121 c 12.97584,-9.0145 22.07451,-17.0048 26.7269,-23.471 l 2.7311,-3.7959 -8.76399,2.3734 c -10.77163,2.9172 -23.67747,3.824 -32.70751,2.2984 -9.29527,-1.5705 -23.70981,-7.01 -30.94048,-11.6757 -6.07813,-3.922 -6.23938,-3.9619 -12.43007,-3.0802 -3.44962,0.4914 -8.20217,0.4608 -10.56121,-0.068 -5.46722,-1.2252 -18.71326,-8.7166 -21.41246,-12.11 -1.47855,-1.8588 -3.31748,-7.1042 -6.47322,-18.4645 -4.12755,-14.8587 -4.56665,-15.9666 -6.9021,-17.4146 -4.69534,-2.9112 -10.82092,-1.511 -12.39696,2.8337 -1.04633,2.8845 -0.91397,17.53 0.23282,25.7626 1.01562,7.291 6.84339,25.2878 10.97297,33.8858 4.13924,8.6181 11.96202,17.9348 19.3203,23.0098 10.30144,7.1049 33.75839,14.5187 44.93544,14.2022 2.5377,-0.072 9.24909,-1.369 14.91421,-2.8824 10.21351,-2.7285 10.40504,-2.8245 22.75426,-11.4037 z m 33.75093,-34.9052 c 4.23153,-8.2062 9.28795,-22.3893 12.45553,-34.9373 1.76043,-6.9737 3.0435,-12.777 2.85129,-12.8962 -0.19221,-0.1192 -2.26049,0.669 -4.59618,1.7515 -2.33568,1.0825 -9.66458,3.2627 -16.28643,4.845 -14.6847,3.5087 -23.0258,3.4654 -35.71147,-0.1856 -9.53375,-2.7438 -23.54633,-11.2445 -30.62182,-18.5767 -7.39758,-7.6659 -13.14657,-17.6918 -15.99727,-27.8984 -1.39327,-4.9884 -2.75636,-11.2379 -3.02907,-13.8876 -0.47397,-4.6053 -0.29453,-5.0519 4.06873,-10.1265 5.06596,-5.8919 13.3989,-18.01196 13.1407,-19.1128 -0.0912,-0.38872 -0.83647,-0.40411 -1.65619,-0.0342 -0.81973,0.36994 -2.84501,1.22162 -4.50061,1.89262 -2.8531,1.15635 -2.93395,1.12603 -1.54897,-0.58089 1.39366,-1.71768 1.34412,-1.74325 -1.0716,-0.55336 -12.27857,6.04793 -24.54242,20.90783 -27.55942,33.39333 -0.77116,3.1914 -2.02307,12.4184 -2.78202,20.5045 -1.35351,14.4205 -1.33228,14.9025 1.10936,25.1838 1.36916,5.7651 3.4833,12.4741 4.6982,14.9089 5.45406,10.9307 24.15712,30.3108 34.98856,36.2551 19.2778,10.5798 36.93735,12.769 58.41608,7.2418 l 11.4454,-2.9454 2.1872,-4.2416 z m -91.37752,-12.1988 c -9.99494,-9.6974 -19.13093,-22.6756 -20.71408,-29.4254 -0.45144,-1.9247 -0.68266,-1.9236 -6.82026,0.034 -3.49414,1.1143 -6.61535,2.4064 -6.93605,2.8714 -0.32069,0.4651 0.80418,5.4625 2.4997,11.1054 2.81153,9.3572 3.37778,10.5153 6.43601,13.1625 4.73079,4.0952 16.82705,9.8686 20.93446,9.9918 1.90204,0.057 5.16628,-0.253 7.25386,-0.6891 l 3.79561,-0.7929 -6.44924,-6.2573 z m 102.22305,-37.1802 5.06608,-2.3469 0.38459,-5.7411 c 0.58035,-8.6634 -1.35906,-19.0218 -5.04974,-26.9707 -5.93191,-12.7758 -12.39622,-16.7054 -26.98769,-16.4053 -5.89189,0.1212 -6.24044,0.2428 -13.7729,4.8062 -12.59855,7.6326 -13.80682,10.2475 -16.09584,34.835 l -1.3999,15.037 7.20758,2.0861 c 8.21166,2.3768 15.45562,3.173 22.82577,2.509 6.39218,-0.5759 21.14844,-4.7178 27.82205,-7.8093 z m -26.44856,-1.1464 c -7.1216,-0.7212 -12.22968,-2.4831 -16.9341,-5.8407 -4.45632,-3.1806 -6.1371,-5.5235 -7.19336,-10.0269 -3.17531,-13.538 22.17456,-20.4829 39.61972,-10.8543 11.15131,6.1549 13.11858,17.7269 3.91273,23.0159 -4.84308,2.7825 -13.04904,4.3497 -19.40499,3.706 z m 20.65868,-8.1403 c 5.85873,-6.9686 -1.56218,-16.4183 -15.40862,-19.6212 -8.11499,-1.8771 -19.37095,-0.1605 -23.73621,3.6199 -9.05142,7.8387 2.08257,20.2781 19.44455,21.7243 6.13365,0.511 17.14976,-2.6893 19.70028,-5.723 z m -23.34321,1.3785 c -2.97205,-0.5045 -6.19958,-3.0783 -5.96937,-4.7603 0.30238,-2.2091 4.81614,-2.9069 8.86572,-1.3706 4.53847,1.7218 5.37718,4.5092 1.69949,5.6481 -1.44876,0.4487 -3.51689,0.6659 -4.59584,0.4828 z m 16.03639,-6.9181 c -3.43183,-0.8286 -6.36002,-2.0195 -6.50709,-2.6466 -0.17554,-0.7484 1.95656,-0.6246 6.20631,0.3604 3.56054,0.8252 6.59482,2.0167 6.74284,2.6478 0.14802,0.6311 0.16305,1.1469 0.0334,1.1462 -0.12965,-6e-4 -3.0436,-0.6792 -6.47544,-1.5078 z m -23.44727,-5.6049 c -3.16496,-0.7951 -5.89565,-2.0475 -6.0682,-2.7832 -0.24312,-1.0365 1.03461,-1.0118 5.67666,0.1099 3.29472,0.7962 6.13038,2.0444 6.30146,2.7738 0.37954,1.6181 0.97197,1.6282 -5.90992,-0.1005 z m -88.78336,21.2441 c 0.33965,-0.3387 -0.065,-3.526 -0.89932,-7.083 -1.17886,-5.0261 -1.306,-8.6931 -0.57053,-16.4564 0.52047,-5.4941 0.79151,-10.0852 0.6023,-10.2025 -0.1892,-0.1173 -3.38216,1.1632 -7.09546,2.8456 -9.24595,4.1891 -29.3535,8.9111 -39.84788,9.3578 -47.12255,2.0059 -90.41644,-24.8388 -109.5395,-67.92064 -6.93567,-15.62522 -10.54829,-37.88715 -8.9693,-55.27124 3.71483,-40.89888 29.80042,-77.14905 67.58545,-93.92095 9.83209,-4.36424 28.90636,-8.83806 39.65357,-9.30066 47.09166,-2.02698 90.41559,24.83501 109.53862,67.9168 4.36424,9.83211 8.83806,28.90637 9.30066,39.65359 0.65894,15.30892 -1.8451,31.06242 -7.33489,46.14558 -3.27192,8.9896 -16.29983,30.06482 -22.21187,35.93212 l -4.34943,4.3165 2.26488,9.8491 c 2.09301,9.1017 6.76289,20.1067 9.16397,21.5954 2.01237,1.2477 19.56559,-16.6748 27.99648,-28.5855 18.27747,-25.82141 27.67856,-56.79322 27.04471,-89.09849 -0.17489,-8.91088 -0.78086,-12.767 -4.49445,-28.6 -3.7041,-15.79248 -4.89023,-19.56643 -8.65516,-27.53834 -22.26957,-47.15389 -65.65177,-78.42689 -116.90644,-84.2745 -18.472,-2.10745 -28.12146,-1.41864 -49.11903,3.50629 -15.833,3.7136 -19.55641,4.88538 -27.61574,8.69088 -53.71844,25.36502 -86.350623,77.99533 -85.185263,137.38975 0.17485,8.91089 0.78083,12.767 4.49442,28.6 4.90911,20.93007 8.64033,30.04241 18.643363,45.53041 27.77392,43.0032 75.91189,68.5496 126.64981,67.2119 11.50848,-0.3034 14.22134,-0.8342 13.78439,-2.6972 -0.17733,-0.756 0.11377,-3.1466 0.64687,-5.3123 1.64396,-6.6784 7.50855,-10.0587 13.84345,-7.9793 4.68134,1.5366 7.30616,4.3158 7.4231,7.8596 l 0.0964,2.922 6.72213,-2.2333 c 3.69717,-1.2283 7.00001,-2.5104 7.33966,-2.849 z m -6.65376,-36.9812 6.6171,-3.2523 1.68481,-7.53 c 4.19891,-18.7663 22.52939,-37.13725 38.56678,-38.65193 l 3.85979,-0.36454 2.98807,-7.63121 c 5.28107,-13.48723 7.6431,-25.72715 7.87326,-40.7987 0.11013,-7.21243 -0.42764,-10.88384 -3.53429,-24.12912 -3.83602,-16.35496 -6.92778,-23.92676 -14.29358,-35.00535 -17.3895,-26.15478 -46.277,-44.06579 -77.43613,-48.01243 -13.19832,-1.67171 -21.35518,-1.07434 -37.71013,2.76168 -16.35496,3.83602 -23.92676,6.92778 -35.00536,14.29359 -26.15478,17.38949 -44.06579,46.27699 -48.01242,77.43612 -1.67172,13.19832 -1.07435,21.35518 2.76167,37.71014 3.10665,13.24527 4.2574,16.77291 7.56295,23.1842 15.37329,29.81725 40.60154,49.93575 72.05132,57.45805 12.00754,2.872 20.69061,3.5163 36.42285,2.7027 5.61231,-0.2902 29.22376,-7.0354 35.60331,-10.1709 z"
       style="fill:#000000;fill-opacity:1" />
  </g>
</svg>
